<svg xmlns="http://www.w3.org/2000/svg" xmlns:xlink="http://www.w3.org/1999/xlink" width="500" zoomAndPan="magnify" viewBox="0 0 375 374.999991" height="500" preserveAspectRatio="xMidYMid meet" version="1.2"><defs><clipPath id="9cc143b8bb"><path d="M 138.300781 87.445312 L 176 87.445312 L 176 192 L 138.300781 192 Z M 138.300781 87.445312 "/></clipPath><clipPath id="5429fc2acd"><path d="M 180 107 L 218 107 L 218 211.511719 L 180 211.511719 Z M 180 107 "/></clipPath></defs><g id="b54cc32a09"><g clip-rule="nonzero" clip-path="url(#9cc143b8bb)"><path style=" stroke:none;fill-rule:nonzero;fill:#6d696a;fill-opacity:1;" d="M 138.335938 145.78125 L 138.335938 132.832031 C 140.960938 132.6875 142.9375 132.292969 144.269531 131.644531 C 145.601562 130.996094 146.753906 129.910156 147.722656 128.378906 C 148.695312 126.851562 149.359375 124.933594 149.722656 122.632812 C 150.007812 120.90625 150.152344 117.902344 150.152344 113.621094 C 150.152344 106.640625 150.476562 101.773438 151.125 99.023438 C 151.773438 96.273438 152.941406 94.058594 154.632812 92.386719 C 156.320312 90.714844 158.785156 89.390625 162.023438 88.421875 C 164.21875 87.773438 167.671875 87.449219 172.382812 87.449219 L 175.242188 87.449219 L 175.242188 100.347656 C 171.25 100.347656 168.6875 100.570312 167.554688 101.019531 C 166.421875 101.472656 165.585938 102.152344 165.046875 103.070312 C 164.503906 103.988281 164.238281 105.5625 164.238281 107.792969 C 164.238281 110.058594 164.074219 114.359375 163.75 120.6875 C 163.570312 124.25 163.101562 127.136719 162.347656 129.351562 C 161.59375 131.5625 160.628906 133.386719 159.460938 134.828125 C 158.292969 136.265625 156.5 137.757812 154.089844 139.304688 C 156.214844 140.53125 157.949219 141.960938 159.300781 143.597656 C 160.648438 145.234375 161.679688 147.21875 162.402344 149.558594 C 163.121094 151.898438 163.589844 155.027344 163.804688 158.949219 C 164.054688 164.917969 164.183594 168.734375 164.183594 170.386719 C 164.183594 172.761719 164.46875 174.414062 165.046875 175.351562 C 165.621094 176.285156 166.492188 177 167.664062 177.484375 C 168.832031 177.96875 171.359375 178.210938 175.242188 178.210938 L 175.242188 191.164062 L 172.382812 191.164062 C 167.527344 191.164062 163.804688 190.773438 161.214844 190.003906 C 158.625 189.230469 156.4375 187.941406 154.660156 186.144531 C 152.878906 184.34375 151.679688 182.125 151.070312 179.480469 C 150.457031 176.835938 150.152344 172.671875 150.152344 166.988281 C 150.152344 160.371094 149.863281 156.070312 149.289062 154.089844 C 148.496094 151.214844 147.300781 149.152344 145.699219 147.914062 C 144.097656 146.671875 141.644531 145.960938 138.335938 145.78125 "/></g><path style=" stroke:none;fill-rule:nonzero;fill:#5271ff;fill-opacity:1;" d="M 220.199219 114.316406 L 211.753906 114.316406 L 211.753906 105.871094 L 220.199219 105.871094 L 220.199219 114.316406 "/><path style=" stroke:none;fill-rule:nonzero;fill:#5271ff;fill-opacity:1;" d="M 218.207031 131.207031 L 211.753906 131.207031 L 211.753906 124.753906 L 218.207031 124.753906 L 218.207031 131.207031 "/><g clip-rule="nonzero" clip-path="url(#5429fc2acd)"><path style=" stroke:none;fill-rule:nonzero;fill:#5271ff;fill-opacity:1;" d="M 193.636719 120.769531 L 193.636719 114.316406 L 200.089844 114.316406 L 200.089844 120.769531 Z M 210.050781 150.9375 C 208.429688 149.695312 207.226562 147.636719 206.433594 144.761719 C 206 143.136719 205.738281 140.023438 205.65625 135.429688 L 200.089844 135.429688 L 200.089844 126.984375 L 205.53125 126.984375 C 205.398438 123.726562 205.113281 121.191406 204.679688 119.371094 C 204.050781 116.726562 202.855469 114.496094 201.09375 112.679688 C 199.328125 110.863281 197.152344 109.578125 194.5625 108.820312 C 191.972656 108.066406 188.25 107.6875 183.390625 107.6875 L 180.53125 107.6875 L 180.53125 120.585938 C 184.597656 120.585938 187.214844 120.828125 188.382812 121.3125 C 189.554688 121.800781 190.363281 122.492188 190.8125 123.390625 C 191.261719 124.289062 191.503906 126.089844 191.539062 128.785156 C 191.71875 137.347656 192.007812 142.890625 192.402344 145.40625 C 193.015625 149.078125 194.164062 152.097656 195.859375 154.472656 C 197.082031 156.128906 199.023438 157.820312 201.6875 159.542969 C 199.636719 160.730469 197.953125 162.109375 196.640625 163.671875 C 195.324219 165.238281 194.273438 167.144531 193.484375 169.394531 C 192.691406 171.640625 192.207031 174.636719 192.027344 178.378906 C 191.738281 184.566406 191.585938 188.753906 191.570312 190.949219 C 191.550781 193.144531 191.261719 194.699219 190.703125 195.617188 C 190.144531 196.535156 189.273438 197.238281 188.085938 197.722656 C 186.898438 198.207031 184.382812 198.453125 180.53125 198.453125 L 180.53125 211.402344 L 183.390625 211.402344 C 188.105469 211.402344 191.558594 211.078125 193.753906 210.429688 C 197.027344 209.457031 199.507812 208.136719 201.199219 206.464844 C 202.890625 204.792969 204.050781 202.570312 204.679688 199.800781 C 205.308594 197.027344 205.625 192.15625 205.625 185.175781 C 205.625 180.933594 205.769531 177.945312 206.054688 176.21875 C 206.453125 173.917969 207.125 172 208.078125 170.472656 C 209.03125 168.941406 210.175781 167.855469 211.507812 167.207031 C 212.835938 166.558594 214.816406 166.164062 217.441406 166.019531 L 217.441406 153.070312 C 214.132812 152.890625 211.667969 152.179688 210.050781 150.9375 "/></g><path style=" stroke:none;fill-rule:nonzero;fill:#5271ff;fill-opacity:1;" d="M 236.667969 97.914062 L 230.214844 97.914062 L 230.214844 91.460938 L 236.667969 91.460938 L 236.667969 97.914062 "/><path style=" stroke:none;fill-rule:nonzero;fill:#5271ff;fill-opacity:1;" d="M 204.3125 105.871094 L 192.265625 105.871094 L 192.265625 93.824219 L 204.3125 93.824219 L 204.3125 105.871094 "/><g style="fill:#4f6df8;fill-opacity:1;"><g transform="translate(17.84791, 271.502516)"><path style="stroke:none" d="M 3.734375 -33.34375 L 16.921875 -33.34375 C 19.410156 -33.34375 21.707031 -32.921875 23.8125 -32.078125 C 25.914062 -31.234375 27.738281 -30.070312 29.28125 -28.59375 C 30.820312 -27.113281 32.03125 -25.351562 32.90625 -23.3125 C 33.789062 -21.269531 34.234375 -19.054688 34.234375 -16.671875 C 34.234375 -14.285156 33.789062 -12.078125 32.90625 -10.046875 C 32.03125 -8.023438 30.820312 -6.265625 29.28125 -4.765625 C 27.738281 -3.273438 25.914062 -2.109375 23.8125 -1.265625 C 21.707031 -0.421875 19.410156 0 16.921875 0 L 3.734375 0 Z M 16.96875 -6.8125 C 18.363281 -6.8125 19.640625 -7.0625 20.796875 -7.5625 C 21.960938 -8.0625 22.972656 -8.75 23.828125 -9.625 C 24.691406 -10.507812 25.363281 -11.546875 25.84375 -12.734375 C 26.332031 -13.929688 26.578125 -15.242188 26.578125 -16.671875 C 26.578125 -18.097656 26.332031 -19.40625 25.84375 -20.59375 C 25.363281 -21.789062 24.691406 -22.828125 23.828125 -23.703125 C 22.972656 -24.585938 21.960938 -25.28125 20.796875 -25.78125 C 19.640625 -26.28125 18.363281 -26.53125 16.96875 -26.53125 L 11 -26.53125 L 11 -6.8125 Z M 16.96875 -6.8125 "/></g></g><g style="fill:#4f6df8;fill-opacity:1;"><g transform="translate(56.960314, 271.502516)"><path style="stroke:none" d="M 12.6875 0.890625 C 10.101562 0.890625 7.78125 0.3125 5.71875 -0.84375 C 3.664062 -2.007812 2.007812 -3.6875 0.75 -5.875 L 5.828125 -10.109375 C 7.546875 -7.015625 9.816406 -5.46875 12.640625 -5.46875 C 13.898438 -5.46875 14.921875 -5.773438 15.703125 -6.390625 C 16.484375 -7.003906 16.875 -7.8125 16.875 -8.8125 C 16.875 -9.738281 16.488281 -10.539062 15.71875 -11.21875 C 14.957031 -11.90625 13.582031 -12.675781 11.59375 -13.53125 C 8.507812 -14.894531 6.257812 -16.414062 4.84375 -18.09375 C 3.4375 -19.769531 2.734375 -21.769531 2.734375 -24.09375 C 2.734375 -25.550781 3 -26.890625 3.53125 -28.109375 C 4.0625 -29.335938 4.804688 -30.390625 5.765625 -31.265625 C 6.734375 -32.148438 7.878906 -32.832031 9.203125 -33.3125 C 10.535156 -33.800781 12 -34.046875 13.59375 -34.046875 C 17.800781 -34.046875 21.363281 -32.234375 24.28125 -28.609375 L 19.453125 -24.234375 C 18.523438 -25.460938 17.597656 -26.363281 16.671875 -26.9375 C 15.742188 -27.519531 14.71875 -27.8125 13.59375 -27.8125 C 12.488281 -27.8125 11.613281 -27.535156 10.96875 -26.984375 C 10.320312 -26.441406 10 -25.707031 10 -24.78125 C 10 -23.75 10.429688 -22.898438 11.296875 -22.234375 C 12.160156 -21.578125 13.453125 -20.867188 15.171875 -20.109375 C 18.328125 -18.710938 20.609375 -17.160156 22.015625 -15.453125 C 23.429688 -13.742188 24.140625 -11.726562 24.140625 -9.40625 C 24.140625 -7.875 23.851562 -6.476562 23.28125 -5.21875 C 22.71875 -3.957031 21.9375 -2.867188 20.9375 -1.953125 C 19.945312 -1.046875 18.75 -0.347656 17.34375 0.140625 C 15.9375 0.640625 14.382812 0.890625 12.6875 0.890625 Z M 12.6875 0.890625 "/></g></g><g style="fill:#4f6df8;fill-opacity:1;"><g transform="translate(86.1205, 271.502516)"><path style="stroke:none" d="M 13.640625 -33.9375 L 18.265625 -33.9375 L 31.40625 0 L 23.734375 0 L 21.703125 -5.625 L 10.203125 -5.625 L 8.21875 0 L 0.5 0 Z M 19.453125 -11.890625 L 15.96875 -21.703125 L 12.4375 -11.890625 Z M 19.453125 -11.890625 "/></g></g><g style="fill:#6d696a;fill-opacity:1;"><g transform="translate(121.164871, 271.502516)"><path style="stroke:none" d="M 12.6875 0.890625 C 10.101562 0.890625 7.78125 0.3125 5.71875 -0.84375 C 3.664062 -2.007812 2.007812 -3.6875 0.75 -5.875 L 5.828125 -10.109375 C 7.546875 -7.015625 9.816406 -5.46875 12.640625 -5.46875 C 13.898438 -5.46875 14.921875 -5.773438 15.703125 -6.390625 C 16.484375 -7.003906 16.875 -7.8125 16.875 -8.8125 C 16.875 -9.738281 16.488281 -10.539062 15.71875 -11.21875 C 14.957031 -11.90625 13.582031 -12.675781 11.59375 -13.53125 C 8.507812 -14.894531 6.257812 -16.414062 4.84375 -18.09375 C 3.4375 -19.769531 2.734375 -21.769531 2.734375 -24.09375 C 2.734375 -25.550781 3 -26.890625 3.53125 -28.109375 C 4.0625 -29.335938 4.804688 -30.390625 5.765625 -31.265625 C 6.734375 -32.148438 7.878906 -32.832031 9.203125 -33.3125 C 10.535156 -33.800781 12 -34.046875 13.59375 -34.046875 C 17.800781 -34.046875 21.363281 -32.234375 24.28125 -28.609375 L 19.453125 -24.234375 C 18.523438 -25.460938 17.597656 -26.363281 16.671875 -26.9375 C 15.742188 -27.519531 14.71875 -27.8125 13.59375 -27.8125 C 12.488281 -27.8125 11.613281 -27.535156 10.96875 -26.984375 C 10.320312 -26.441406 10 -25.707031 10 -24.78125 C 10 -23.75 10.429688 -22.898438 11.296875 -22.234375 C 12.160156 -21.578125 13.453125 -20.867188 15.171875 -20.109375 C 18.328125 -18.710938 20.609375 -17.160156 22.015625 -15.453125 C 23.429688 -13.742188 24.140625 -11.726562 24.140625 -9.40625 C 24.140625 -7.875 23.851562 -6.476562 23.28125 -5.21875 C 22.71875 -3.957031 21.9375 -2.867188 20.9375 -1.953125 C 19.945312 -1.046875 18.75 -0.347656 17.34375 0.140625 C 15.9375 0.640625 14.382812 0.890625 12.6875 0.890625 Z M 12.6875 0.890625 "/></g></g><g style="fill:#6d696a;fill-opacity:1;"><g transform="translate(150.325057, 271.502516)"><path style="stroke:none" d="M 10.59375 -19.859375 L 10.59375 0 L 3.734375 0 L 3.734375 -33.9375 L 7.515625 -33.9375 L 26.125 -13.484375 L 26.125 -33.34375 L 33 -33.34375 L 33 0.59375 L 29.21875 0.59375 Z M 10.59375 -19.859375 "/></g></g><g style="fill:#6d696a;fill-opacity:1;"><g transform="translate(190.183886, 271.502516)"><path style="stroke:none" d="M 3.734375 -33.34375 L 11 -33.34375 L 11 0 L 3.734375 0 Z M 3.734375 -33.34375 "/></g></g><g style="fill:#6d696a;fill-opacity:1;"><g transform="translate(208.048288, 271.502516)"><path style="stroke:none" d="M 3.734375 -33.34375 L 13.828125 -33.34375 C 15.617188 -33.34375 17.269531 -33.0625 18.78125 -32.5 C 20.289062 -31.9375 21.59375 -31.144531 22.6875 -30.125 C 23.78125 -29.113281 24.632812 -27.921875 25.25 -26.546875 C 25.863281 -25.171875 26.171875 -23.671875 26.171875 -22.046875 C 26.171875 -20.421875 25.863281 -18.921875 25.25 -17.546875 C 24.632812 -16.171875 23.796875 -14.984375 22.734375 -13.984375 C 21.679688 -12.984375 20.40625 -12.203125 18.90625 -11.640625 C 17.414062 -11.078125 15.804688 -10.796875 14.078125 -10.796875 L 11 -10.796875 L 11 0 L 3.734375 0 Z M 13.828125 -17.609375 C 15.359375 -17.609375 16.585938 -18 17.515625 -18.78125 C 18.441406 -19.5625 18.90625 -20.648438 18.90625 -22.046875 C 18.90625 -23.410156 18.441406 -24.5 17.515625 -25.3125 C 16.585938 -26.125 15.359375 -26.53125 13.828125 -26.53125 L 11 -26.53125 L 11 -17.609375 Z M 13.828125 -17.609375 "/></g></g><g style="fill:#6d696a;fill-opacity:1;"><g transform="translate(239.3482, 271.502516)"><path style="stroke:none" d="M 3.734375 -33.34375 L 13.828125 -33.34375 C 15.617188 -33.34375 17.269531 -33.0625 18.78125 -32.5 C 20.289062 -31.9375 21.59375 -31.144531 22.6875 -30.125 C 23.78125 -29.113281 24.632812 -27.921875 25.25 -26.546875 C 25.863281 -25.171875 26.171875 -23.671875 26.171875 -22.046875 C 26.171875 -20.421875 25.863281 -18.921875 25.25 -17.546875 C 24.632812 -16.171875 23.796875 -14.984375 22.734375 -13.984375 C 21.679688 -12.984375 20.40625 -12.203125 18.90625 -11.640625 C 17.414062 -11.078125 15.804688 -10.796875 14.078125 -10.796875 L 11 -10.796875 L 11 0 L 3.734375 0 Z M 13.828125 -17.609375 C 15.359375 -17.609375 16.585938 -18 17.515625 -18.78125 C 18.441406 -19.5625 18.90625 -20.648438 18.90625 -22.046875 C 18.90625 -23.410156 18.441406 -24.5 17.515625 -25.3125 C 16.585938 -26.125 15.359375 -26.53125 13.828125 -26.53125 L 11 -26.53125 L 11 -17.609375 Z M 13.828125 -17.609375 "/></g></g><g style="fill:#6d696a;fill-opacity:1;"><g transform="translate(270.648112, 271.502516)"><path style="stroke:none" d="M 3.734375 -33.34375 L 22.796875 -33.34375 L 22.796875 -26.53125 L 11 -26.53125 L 11 -20.40625 L 19.609375 -20.40625 L 19.609375 -13.59375 L 11 -13.59375 L 11 -6.8125 L 23.046875 -6.8125 L 23.046875 0 L 3.734375 0 Z M 3.734375 -33.34375 "/></g></g><g style="fill:#6d696a;fill-opacity:1;"><g transform="translate(299.310688, 271.502516)"><path style="stroke:none" d="M 10.703125 -26.53125 L 1 -26.53125 L 1 -33.34375 L 27.671875 -33.34375 L 27.671875 -26.53125 L 17.96875 -26.53125 L 17.96875 0 L 10.703125 0 Z M 10.703125 -26.53125 "/></g></g><g style="fill:#6d696a;fill-opacity:1;"><g transform="translate(331.10821, 271.502516)"><path style="stroke:none" d="M 12.6875 0.890625 C 10.101562 0.890625 7.78125 0.3125 5.71875 -0.84375 C 3.664062 -2.007812 2.007812 -3.6875 0.75 -5.875 L 5.828125 -10.109375 C 7.546875 -7.015625 9.816406 -5.46875 12.640625 -5.46875 C 13.898438 -5.46875 14.921875 -5.773438 15.703125 -6.390625 C 16.484375 -7.003906 16.875 -7.8125 16.875 -8.8125 C 16.875 -9.738281 16.488281 -10.539062 15.71875 -11.21875 C 14.957031 -11.90625 13.582031 -12.675781 11.59375 -13.53125 C 8.507812 -14.894531 6.257812 -16.414062 4.84375 -18.09375 C 3.4375 -19.769531 2.734375 -21.769531 2.734375 -24.09375 C 2.734375 -25.550781 3 -26.890625 3.53125 -28.109375 C 4.0625 -29.335938 4.804688 -30.390625 5.765625 -31.265625 C 6.734375 -32.148438 7.878906 -32.832031 9.203125 -33.3125 C 10.535156 -33.800781 12 -34.046875 13.59375 -34.046875 C 17.800781 -34.046875 21.363281 -32.234375 24.28125 -28.609375 L 19.453125 -24.234375 C 18.523438 -25.460938 17.597656 -26.363281 16.671875 -26.9375 C 15.742188 -27.519531 14.71875 -27.8125 13.59375 -27.8125 C 12.488281 -27.8125 11.613281 -27.535156 10.96875 -26.984375 C 10.320312 -26.441406 10 -25.707031 10 -24.78125 C 10 -23.75 10.429688 -22.898438 11.296875 -22.234375 C 12.160156 -21.578125 13.453125 -20.867188 15.171875 -20.109375 C 18.328125 -18.710938 20.609375 -17.160156 22.015625 -15.453125 C 23.429688 -13.742188 24.140625 -11.726562 24.140625 -9.40625 C 24.140625 -7.875 23.851562 -6.476562 23.28125 -5.21875 C 22.71875 -3.957031 21.9375 -2.867188 20.9375 -1.953125 C 19.945312 -1.046875 18.75 -0.347656 17.34375 0.140625 C 15.9375 0.640625 14.382812 0.890625 12.6875 0.890625 Z M 12.6875 0.890625 "/></g></g></g></svg>