<svg xmlns="http://www.w3.org/2000/svg" xmlns:xlink="http://www.w3.org/1999/xlink" width="500" zoomAndPan="magnify" viewBox="0 0 375 374.999991" height="500" preserveAspectRatio="xMidYMid meet" version="1.2"><defs><clipPath id="dc30c7e0c6"><path d="M 68.140625 20.730469 L 168 20.730469 L 168 300 L 68.140625 300 Z M 68.140625 20.730469 "/></clipPath><clipPath id="d84c1b6e9f"><path d="M 181 75 L 282 75 L 282 354.480469 L 181 354.480469 Z M 181 75 "/></clipPath><clipPath id="b52036bf48"><path d="M 315 31 L 332.890625 31 L 332.890625 49 L 315 49 Z M 315 31 "/></clipPath></defs><g id="9de4dfcd8c"><g clip-rule="nonzero" clip-path="url(#dc30c7e0c6)"><path style=" stroke:none;fill-rule:nonzero;fill:#6d696a;fill-opacity:1;" d="M 68.222656 177.707031 L 68.222656 142.855469 C 75.285156 142.472656 80.609375 141.40625 84.191406 139.660156 C 87.773438 137.917969 90.871094 134.996094 93.484375 130.878906 C 96.101562 126.761719 97.890625 121.609375 98.859375 115.414062 C 99.628906 110.765625 100.019531 102.683594 100.019531 91.164062 C 100.019531 72.382812 100.890625 59.289062 102.632812 51.886719 C 104.375 44.480469 107.519531 38.527344 112.070312 34.027344 C 116.621094 29.523438 123.253906 25.96875 131.964844 23.355469 C 137.867188 21.609375 147.160156 20.738281 159.84375 20.738281 L 167.539062 20.738281 L 167.539062 55.445312 C 156.792969 55.445312 149.898438 56.050781 146.847656 57.257812 C 143.796875 58.472656 141.546875 60.304688 140.09375 62.773438 C 138.644531 65.242188 137.917969 69.480469 137.917969 75.480469 C 137.917969 81.582031 137.480469 93.148438 136.609375 110.183594 C 136.125 119.769531 134.867188 127.539062 132.835938 133.488281 C 130.800781 139.441406 128.210938 144.359375 125.066406 148.226562 C 121.921875 152.101562 117.101562 156.121094 110.621094 160.28125 C 116.332031 163.574219 121 167.421875 124.632812 171.824219 C 128.261719 176.230469 131.042969 181.578125 132.980469 187.871094 C 134.917969 194.164062 136.175781 202.585938 136.753906 213.132812 C 137.433594 229.203125 137.769531 239.464844 137.769531 243.917969 C 137.769531 250.304688 138.546875 254.757812 140.09375 257.277344 C 141.644531 259.792969 143.992188 261.707031 147.136719 263.011719 C 150.28125 264.320312 157.085938 264.972656 167.539062 264.972656 L 167.539062 299.820312 L 159.84375 299.820312 C 146.773438 299.820312 136.753906 298.777344 129.785156 296.699219 C 122.816406 294.617188 116.9375 291.15625 112.144531 286.316406 C 107.351562 281.476562 104.132812 275.496094 102.488281 268.382812 C 100.839844 261.269531 100.019531 250.0625 100.019531 234.769531 C 100.019531 216.960938 99.242188 205.390625 97.695312 200.066406 C 95.566406 192.320312 92.347656 186.78125 88.039062 183.441406 C 83.730469 180.101562 77.125 178.191406 68.222656 177.707031 "/></g><path style=" stroke:none;fill-rule:nonzero;fill:#5271ff;fill-opacity:1;" d="M 288.511719 93.035156 L 265.78125 93.035156 L 265.78125 70.308594 L 288.511719 70.308594 L 288.511719 93.035156 "/><path style=" stroke:none;fill-rule:nonzero;fill:#5271ff;fill-opacity:1;" d="M 283.144531 138.488281 L 265.78125 138.488281 L 265.78125 121.125 L 283.144531 121.125 L 283.144531 138.488281 "/><g clip-rule="nonzero" clip-path="url(#d84c1b6e9f)"><path style=" stroke:none;fill-rule:nonzero;fill:#5271ff;fill-opacity:1;" d="M 217.027344 110.398438 L 217.027344 93.035156 L 234.390625 93.035156 L 234.390625 110.398438 Z M 261.195312 191.582031 C 256.839844 188.242188 253.597656 182.703125 251.46875 174.957031 C 250.296875 170.585938 249.597656 162.214844 249.371094 149.851562 L 234.390625 149.851562 L 234.390625 127.125 L 249.042969 127.125 C 248.679688 118.359375 247.914062 111.53125 246.746094 106.636719 C 245.054688 99.523438 241.835938 93.519531 237.09375 88.632812 C 232.347656 83.746094 226.492188 80.28125 219.523438 78.25 C 212.550781 76.214844 202.535156 75.203125 189.464844 75.203125 L 181.769531 75.203125 L 181.769531 109.90625 C 192.707031 109.90625 199.75 110.558594 202.898438 111.863281 C 206.042969 113.171875 208.21875 115.035156 209.433594 117.453125 C 210.640625 119.875 211.292969 124.714844 211.390625 131.976562 C 211.875 155.015625 212.648438 169.921875 213.714844 176.699219 C 215.359375 186.574219 218.457031 194.703125 223.007812 201.09375 C 226.296875 205.546875 231.523438 210.097656 238.691406 214.742188 C 233.171875 217.933594 228.644531 221.636719 225.113281 225.851562 C 221.578125 230.0625 218.746094 235.191406 216.617188 241.242188 C 214.488281 247.292969 213.183594 255.351562 212.699219 265.417969 C 211.921875 282.070312 211.511719 293.34375 211.464844 299.25 C 211.414062 305.152344 210.640625 309.34375 209.140625 311.8125 C 207.636719 314.28125 205.292969 316.167969 202.097656 317.476562 C 198.902344 318.78125 192.125 319.433594 181.769531 319.433594 L 181.769531 354.285156 L 189.464844 354.285156 C 202.144531 354.285156 211.441406 353.410156 217.34375 351.667969 C 226.152344 349.054688 232.828125 345.5 237.386719 340.996094 C 241.933594 336.496094 245.054688 330.515625 246.746094 323.0625 C 248.441406 315.605469 249.289062 302.492188 249.289062 283.710938 C 249.289062 272.292969 249.675781 264.257812 250.449219 259.609375 C 251.515625 253.414062 253.332031 248.261719 255.894531 244.144531 C 258.460938 240.03125 261.535156 237.101562 265.117188 235.363281 C 268.695312 233.617188 274.023438 232.554688 281.089844 232.167969 L 281.089844 197.316406 C 272.179688 196.832031 265.554688 194.921875 261.195312 191.582031 "/></g><g clip-rule="nonzero" clip-path="url(#b52036bf48)"><path style=" stroke:none;fill-rule:nonzero;fill:#5271ff;fill-opacity:1;" d="M 332.820312 48.894531 L 315.457031 48.894531 L 315.457031 31.53125 L 332.820312 31.53125 L 332.820312 48.894531 "/></g><path style=" stroke:none;fill-rule:nonzero;fill:#5271ff;fill-opacity:1;" d="M 245.753906 70.308594 L 213.339844 70.308594 L 213.339844 37.894531 L 245.753906 37.894531 L 245.753906 70.308594 "/></g></svg>